<?xml version="1.0" encoding="UTF-8" standalone="no"?>
<svg
   width="1440"
   height="576"
   viewBox="0 0 1440 576"
   fill="none"
   version="1.1"
   id="svg22"
   sodipodi:docname="SwiftFunLabs.svg"
   inkscape:version="1.3.2 (091e20e, 2023-11-25)"
   xmlns:inkscape="http://www.inkscape.org/namespaces/inkscape"
   xmlns:sodipodi="http://sodipodi.sourceforge.net/DTD/sodipodi-0.dtd"
   xmlns="http://www.w3.org/2000/svg"
   xmlns:svg="http://www.w3.org/2000/svg">
  <sodipodi:namedview
     id="namedview22"
     pagecolor="#ffffff"
     bordercolor="#000000"
     borderopacity="0.25"
     inkscape:showpageshadow="2"
     inkscape:pageopacity="0.0"
     inkscape:pagecheckerboard="0"
     inkscape:deskcolor="#d1d1d1"
     inkscape:zoom="0.36875"
     inkscape:cx="718.64407"
     inkscape:cy="318.64407"
     inkscape:window-width="1440"
     inkscape:window-height="782"
     inkscape:window-x="0"
     inkscape:window-y="25"
     inkscape:window-maximized="0"
     inkscape:current-layer="svg22" />
  <g
     id="g22"
     transform="translate(0.001,-32)">
    <g
       filter="url(#filter0_i_489_7834)"
       id="g4">
      <rect
         x="541.29901"
         y="125"
         width="360"
         height="200"
         rx="32"
         fill="#2c72ff"
         id="rect1" />
      <g
         filter="url(#filter1_d_489_7834)"
         id="g3">
        <rect
           x="760.18701"
           y="164.948"
           width="142.73399"
           height="21.6"
           rx="10.8"
           transform="rotate(115.093,760.187,164.948)"
           fill="#f4961d"
           id="rect2" />
        <path
           fill-rule="evenodd"
           clip-rule="evenodd"
           d="m 620.179,182.788 c 0,-5.964 4.835,-10.8 10.8,-10.8 5.964,0 10.8,4.836 10.8,10.8 v 28.08 h 28.08 c 5.964,0 10.8,4.836 10.8,10.8 0,5.965 -4.836,10.8 -10.8,10.8 h -28.08 v 28.08 c 0,5.965 -4.836,10.8 -10.8,10.8 -5.965,0 -10.8,-4.835 -10.8,-10.8 v -28.08 h -28.08 c -5.965,0 -10.8,-4.835 -10.8,-10.8 0,-5.964 4.835,-10.8 10.8,-10.8 h 28.08 z"
           fill="#f4961d"
           id="path2" />
        <path
           fill-rule="evenodd"
           clip-rule="evenodd"
           d="m 777.27,198.593 c -4.604,-2.659 -6.182,-8.546 -3.523,-13.15 2.658,-4.604 8.545,-6.182 13.149,-3.523 l 60.023,34.654 c 4.604,2.658 6.181,8.545 3.523,13.149 -1.098,1.902 -2.746,3.287 -4.627,4.071 l -59.076,34.107 c -4.604,2.658 -10.491,1.08 -13.149,-3.524 -2.658,-4.604 -1.081,-10.491 3.523,-13.149 l 45.662,-26.363 z"
           fill="#f4961d"
           id="path3" />
      </g>
    </g>
    <circle
       cx="503.29901"
       cy="238"
       r="16"
       fill="#f4961d"
       id="circle4" />
    <rect
       x="935.61603"
       y="255"
       width="33"
       height="33"
       transform="rotate(27.657,935.616,255)"
       fill="#f4961d"
       id="rect4" />
    <rect
       x="949.38098"
       y="186"
       width="10.0493"
       height="34.360199"
       transform="rotate(13.6281,949.381,186)"
       fill="#f4961d"
       id="rect5" />
    <rect
       x="967.70099"
       y="203.03999"
       width="10.0493"
       height="33"
       transform="rotate(102.72,967.701,203.04)"
       fill="#f4961d"
       id="rect6" />
    <path
       d="m 478.338,156.735 38.127,8.066 -26.049,28.987 z"
       fill="#f4961d"
       id="path6" />
    <path
       d="m 1237.72,483.721 c 0,-2.828 0.47,-5.302 1.41,-7.422 1.06,-2.121 2.36,-3.888 3.89,-5.302 1.53,-1.531 3.24,-2.651 5.13,-3.357 2,-0.707 3.88,-1.061 5.65,-1.061 3.65,0 6.66,0.707 9.01,2.121 2.48,1.296 4.36,3.652 5.66,7.069 2.59,6.715 7.24,10.073 13.96,10.073 4.12,0 7.6,-0.943 10.42,-2.828 2.83,-2.003 4.25,-4.477 4.25,-7.422 0,-2.474 -1.48,-4.359 -4.42,-5.655 -2.83,-1.414 -6.36,-2.71 -10.6,-3.888 -4.25,-1.178 -8.9,-2.474 -13.97,-3.888 -5.06,-1.531 -9.72,-3.593 -13.96,-6.185 -4.24,-2.592 -7.83,-6.008 -10.78,-10.249 -2.82,-4.242 -4.24,-9.779 -4.24,-16.612 0,-5.891 1.12,-11.251 3.36,-16.081 2.36,-4.831 5.66,-8.954 9.9,-12.371 4.24,-3.416 9.42,-6.008 15.55,-7.775 6.12,-1.885 13.02,-2.828 20.67,-2.828 12.73,0 22.33,2.533 28.81,7.599 6.48,5.066 9.72,12.194 9.72,21.383 0,5.302 -1.42,9.189 -4.24,11.663 -2.83,2.475 -6.42,3.712 -10.78,3.712 -4.36,0 -7.48,-0.766 -9.37,-2.298 -1.88,-1.531 -3.53,-4.005 -4.95,-7.422 -1.18,-2.71 -2.65,-4.654 -4.41,-5.832 -1.77,-1.296 -4.13,-1.944 -7.07,-1.944 -3.77,0 -6.84,0.884 -9.19,2.651 -2.36,1.65 -3.54,3.652 -3.54,6.009 0,2.356 1.36,4.241 4.07,5.655 2.82,1.413 6.36,2.709 10.6,3.887 4.24,1.179 8.78,2.533 13.61,4.065 4.83,1.531 9.36,3.652 13.6,6.362 4.25,2.709 7.72,6.244 10.43,10.603 2.83,4.241 4.24,9.837 4.24,16.788 0,6.126 -1.18,11.663 -3.53,16.612 -2.24,4.948 -5.54,9.189 -9.9,12.723 -4.24,3.535 -9.48,6.244 -15.73,8.129 -6.24,1.885 -13.31,2.828 -21.2,2.828 -6.72,0 -12.73,-0.766 -18.03,-2.298 -5.18,-1.531 -9.54,-3.593 -13.07,-6.185 -3.54,-2.709 -6.25,-5.831 -8.13,-9.366 -1.89,-3.652 -2.83,-7.54 -2.83,-11.663 z"
       fill="#f4961d"
       id="path7" />
    <path
       d="m 1159.62,512.702 c -4.36,0 -7.78,-2.061 -10.25,-6.185 -2.48,-4.241 -4.36,-9.425 -5.66,-15.551 -1.18,-6.126 -1.94,-12.606 -2.3,-19.439 -0.23,-6.833 -0.35,-12.9 -0.35,-18.202 0,-6.833 0.12,-13.961 0.35,-21.383 0.24,-7.54 1,-14.432 2.3,-20.676 1.41,-6.244 3.59,-11.369 6.54,-15.374 3.06,-4.124 7.42,-6.185 13.08,-6.185 1.76,0 3.24,0.294 4.41,0.883 1.18,0.471 2.18,1.06 3.01,1.767 0.82,0.707 1.53,1.355 2.12,1.944 0.71,0.471 1.41,0.707 2.12,0.707 0.94,0 1.77,-0.236 2.47,-0.707 0.83,-0.589 1.77,-1.178 2.83,-1.767 1.06,-0.589 2.48,-1.119 4.24,-1.59 1.77,-0.589 4.18,-0.884 7.25,-0.884 3.89,0 7.6,0.825 11.13,2.474 3.54,1.649 6.6,3.947 9.19,6.892 2.71,2.945 4.83,6.48 6.36,10.603 1.65,4.124 2.48,8.718 2.48,13.784 0,3.534 -0.71,6.715 -2.12,9.543 -1.3,2.827 -2.95,5.36 -4.95,7.599 -2.01,2.238 -4.18,4.064 -6.54,5.478 -2.36,1.414 -4.6,2.474 -6.72,3.181 3.07,0.118 6.07,0.825 9.02,2.121 3.06,1.178 5.77,2.768 8.13,4.771 2.35,2.003 4.3,4.418 5.83,7.245 1.53,2.828 2.29,5.95 2.29,9.366 0,6.598 -1.53,12.371 -4.59,17.319 -3.06,4.948 -7.07,9.071 -12.02,12.37 -4.95,3.299 -10.6,5.773 -16.96,7.422 -6.25,1.65 -12.55,2.474 -18.91,2.474 z m 20.14,-78.993 c 1.77,0 3.3,-0.942 4.6,-2.827 1.41,-1.885 2.12,-4.006 2.12,-6.362 0,-2.003 -0.59,-3.652 -1.77,-4.948 -1.06,-1.296 -2.53,-1.944 -4.42,-1.944 -2,0 -3.65,0.707 -4.95,2.121 -1.18,1.413 -1.76,3.298 -1.76,5.655 0,2.356 0.58,4.359 1.76,6.008 1.3,1.532 2.77,2.297 4.42,2.297 z m 1.59,51.072 c 3.06,0 5.24,-1.178 6.54,-3.534 1.41,-2.357 2.12,-4.772 2.12,-7.246 0,-2.121 -0.88,-3.947 -2.65,-5.478 -1.77,-1.65 -3.59,-2.474 -5.48,-2.474 -1.77,0 -3.41,0.707 -4.95,2.12 -1.53,1.296 -2.29,3.653 -2.29,7.069 0,3.77 0.7,6.303 2.12,7.599 1.41,1.296 2.94,1.944 4.59,1.944 z"
       fill="#f4961d"
       id="path8" />
    <path
       d="m 1115.45,513.056 c -4.01,0 -7.6,-0.589 -10.78,-1.767 -3.07,-1.178 -5.54,-3.534 -7.42,-7.069 -1.42,-2.709 -2.54,-5.537 -3.36,-8.482 -0.71,-2.946 -2.18,-5.773 -4.42,-8.483 -1.53,-1.767 -3.3,-3.063 -5.3,-3.888 -2,-0.824 -4.07,-1.237 -6.19,-1.237 -1.76,0 -3.53,0.295 -5.3,0.884 -1.77,0.589 -3.42,1.355 -4.95,2.297 -2.12,1.414 -3.71,3.122 -4.77,5.125 -0.94,1.885 -1.77,3.888 -2.47,6.009 -0.59,2.002 -1.18,4.064 -1.77,6.185 -0.47,2.003 -1.24,3.77 -2.3,5.301 -1.29,1.885 -3.06,3.299 -5.3,4.242 -2.24,0.942 -5.83,1.413 -10.78,1.413 -3.65,0 -6.95,-1.178 -9.89,-3.534 -2.83,-2.474 -4.25,-5.596 -4.25,-9.366 0,-2.828 0.42,-7.54 1.24,-14.138 0.94,-6.597 2.3,-14.019 4.07,-22.266 1.88,-8.247 4.24,-16.788 7.06,-25.624 2.95,-8.954 6.37,-17.083 10.25,-24.387 3.89,-7.422 8.31,-13.49 13.26,-18.202 4.95,-4.713 10.48,-7.069 16.61,-7.069 6.13,0 11.66,2.415 16.61,7.245 4.95,4.713 9.31,10.78 13.08,18.202 3.77,7.423 7.01,15.611 9.72,24.564 2.83,8.954 5.12,17.672 6.89,26.154 1.77,8.365 3.06,15.905 3.89,22.62 0.82,6.716 1.23,11.546 1.23,14.491 0,3.652 -1.11,6.362 -3.35,8.129 -2.24,1.768 -6.01,2.651 -11.31,2.651 z M 1087.7,446.61 c -0.23,-2.71 -1.18,-5.243 -2.82,-7.599 -1.65,-2.356 -3.72,-3.534 -6.19,-3.534 -3.06,0 -5.54,1.296 -7.42,3.888 -1.77,2.592 -2.65,5.537 -2.65,8.836 0,3.298 0.94,5.831 2.82,7.598 1.89,1.768 4.13,2.651 6.72,2.651 1.41,0 2.71,-0.353 3.89,-1.06 1.18,-0.825 2.18,-1.767 3,-2.828 0.94,-1.178 1.65,-2.474 2.12,-3.887 0.47,-1.414 0.65,-2.769 0.53,-4.065 z"
       fill="#f4961d"
       id="path9" />
    <path
       d="m 992.261,513.056 c -6.833,0 -12.606,-0.412 -17.318,-1.237 -4.595,-0.942 -8.365,-2.71 -11.31,-5.301 -2.828,-2.592 -4.889,-6.303 -6.185,-11.134 -1.178,-4.83 -1.767,-11.133 -1.767,-18.909 0,-9.896 -0.118,-19.91 -0.354,-30.042 -0.118,-10.249 0.236,-19.556 1.06,-27.921 0.825,-8.365 2.357,-15.198 4.595,-20.499 2.356,-5.302 6.009,-7.953 10.957,-7.953 4.948,0 8.541,1.414 10.779,4.242 2.357,2.709 3.888,6.302 4.595,10.779 0.825,4.359 1.119,9.366 0.884,15.021 -0.118,5.655 -0.177,11.369 -0.177,17.142 0,6.244 -0.177,12.37 -0.53,18.379 -0.236,5.89 -0.177,11.074 0.177,15.551 0.353,4.477 1.237,8.07 2.65,10.78 1.532,2.592 4.065,3.711 7.599,3.357 1.885,-0.235 3.774,-0.412 5.654,-0.53 2,-0.235 3.89,-0.353 5.66,-0.353 3.65,0 6.71,0.766 9.19,2.297 2.47,1.532 3.71,4.713 3.71,9.543 0,4.241 -0.65,7.481 -1.95,9.719 -1.18,2.239 -3,3.888 -5.48,4.948 -2.47,1.061 -5.59,1.709 -9.36,1.944 -3.65,0.118 -8.013,0.177 -13.079,0.177 z"
       fill="#f4961d"
       id="path10" />
    <path
       d="m 897.641,453.856 c 0,2.002 0.059,4.889 0.177,8.659 0.117,3.77 0.058,7.834 -0.177,12.193 -0.118,4.359 -0.53,8.836 -1.237,13.431 -0.589,4.477 -1.591,8.541 -3.004,12.193 -1.296,3.653 -3.122,6.657 -5.479,9.013 -2.356,2.356 -5.36,3.534 -9.012,3.534 -2.946,0 -5.95,-1.354 -9.013,-4.064 -2.945,-2.71 -5.773,-6.067 -8.482,-10.073 -2.71,-4.123 -5.361,-8.541 -7.953,-13.254 -2.474,-4.83 -4.771,-9.248 -6.892,-13.254 -2.002,-4.123 -3.829,-7.54 -5.478,-10.249 -1.649,-2.71 -2.945,-4.065 -3.888,-4.065 -0.824,0 -1.414,1.296 -1.767,3.888 -0.353,2.592 -0.589,5.537 -0.707,8.836 0,3.181 0.059,6.244 0.177,9.189 0.118,2.945 0.177,4.771 0.177,5.478 0,2.474 0.059,5.302 0.176,8.483 0.236,3.181 0,6.185 -0.707,9.012 -0.706,2.828 -2.061,5.243 -4.064,7.246 -1.885,2.003 -4.948,3.004 -9.189,3.004 -4.713,0 -8.424,-2.062 -11.134,-6.185 -2.591,-4.241 -4.535,-9.661 -5.831,-16.258 -1.296,-6.715 -2.062,-14.079 -2.298,-22.09 -0.235,-8.129 -0.353,-16.081 -0.353,-23.857 0,-7.186 0.236,-14.078 0.707,-20.676 0.589,-6.597 1.649,-12.37 3.181,-17.318 1.649,-5.066 3.887,-9.072 6.715,-12.017 2.827,-3.063 6.48,-4.595 10.957,-4.595 3.887,0 7.422,1.473 10.603,4.418 3.181,2.828 6.126,6.48 8.836,10.957 2.709,4.359 5.124,9.071 7.245,14.137 2.121,5.066 4.006,9.838 5.655,14.314 1.767,4.359 3.299,8.012 4.595,10.957 1.413,2.827 2.591,4.241 3.534,4.241 1.06,0 1.649,-1.414 1.767,-4.241 0.118,-2.945 0.118,-6.598 0,-10.957 0,-4.476 0,-9.248 0,-14.314 0.118,-5.066 0.53,-9.778 1.237,-14.137 0.707,-4.477 1.885,-8.129 3.535,-10.957 1.649,-2.945 4.123,-4.418 7.422,-4.418 4.005,0 7.245,1.178 9.719,3.535 2.592,2.238 4.595,5.183 6.009,8.836 1.531,3.652 2.591,7.834 3.181,12.547 0.706,4.594 1.119,9.248 1.237,13.96 0.117,4.713 0.117,9.249 0,13.608 -0.118,4.359 -0.177,8.129 -0.177,11.31 z"
       fill="#2c72ff"
       id="path11" />
    <path
       d="m 742.132,513.056 c -10.25,0 -18.438,-1.826 -24.564,-5.478 -6.126,-3.652 -10.839,-8.954 -14.137,-15.905 -3.299,-6.951 -5.479,-15.551 -6.539,-25.801 -1.06,-10.249 -1.59,-21.913 -1.59,-34.99 0,-6.008 0.176,-11.486 0.53,-16.435 0.353,-4.948 1.178,-9.248 2.474,-12.9 1.296,-3.652 3.181,-6.48 5.655,-8.482 2.592,-2.003 6.067,-3.005 10.426,-3.005 4.948,0 8.659,1.061 11.133,3.181 2.474,2.003 4.124,4.831 4.949,8.483 0.942,3.534 1.354,7.716 1.237,12.547 0,4.83 0,10.073 0,15.728 0,5.537 0,11.31 0,17.318 0.117,5.891 0.471,11.31 1.06,16.258 0.589,4.83 1.649,8.836 3.181,12.017 1.531,3.181 3.711,4.771 6.538,4.771 2.592,0 4.536,-1.472 5.832,-4.418 1.414,-2.945 2.415,-6.597 3.004,-10.956 0.707,-4.477 1.061,-9.307 1.061,-14.491 0.117,-5.302 0.176,-10.191 0.176,-14.668 0,-7.068 -0.059,-13.43 -0.176,-19.085 -0.118,-5.655 0.294,-10.427 1.237,-14.314 1.06,-4.006 2.886,-7.069 5.478,-9.19 2.592,-2.12 6.597,-3.181 12.017,-3.181 4.948,0 8.6,1.473 10.956,4.418 2.356,2.828 3.947,6.539 4.772,11.133 0.942,4.477 1.354,9.543 1.237,15.198 0,5.537 0,11.075 0,16.612 0,11.31 -0.472,21.618 -1.414,30.925 -0.825,9.308 -2.828,17.26 -6.009,23.857 -3.063,6.598 -7.657,11.723 -13.784,15.375 -6.008,3.652 -14.255,5.478 -24.74,5.478 z"
       fill="#2c72ff"
       id="path12" />
    <path
       d="m 632.972,513.056 c -3.652,0 -6.715,-1.06 -9.189,-3.181 -2.474,-2.238 -4.477,-5.066 -6.008,-8.482 -1.532,-3.535 -2.71,-7.422 -3.535,-11.664 -0.707,-4.359 -1.237,-8.6 -1.59,-12.723 -0.354,-4.242 -0.53,-8.129 -0.53,-11.664 0,-3.652 0,-6.479 0,-8.482 0,-4.124 -0.118,-8.6 -0.354,-13.431 -0.118,-4.83 -0.118,-9.66 0,-14.491 0.236,-4.948 0.707,-9.719 1.414,-14.314 0.825,-4.595 2.12,-8.659 3.888,-12.193 1.885,-3.535 4.418,-6.362 7.598,-8.483 3.299,-2.12 7.482,-3.181 12.547,-3.181 2.239,0 5.008,-0.059 8.306,-0.176 3.417,-0.236 7.01,-0.354 10.78,-0.354 3.888,0 7.717,0.236 11.487,0.707 3.888,0.353 7.363,1.119 10.426,2.297 3.181,1.061 5.714,2.71 7.599,4.948 2.003,2.121 3.004,4.89 3.004,8.306 0,5.419 -1.296,9.484 -3.888,12.194 -2.474,2.592 -5.655,4.418 -9.542,5.478 -3.888,0.942 -8.129,1.414 -12.724,1.414 -4.595,0 -9.013,0.176 -13.254,0.53 -1.296,0.118 -2.356,1.178 -3.181,3.181 -0.707,2.003 -1.119,4.241 -1.237,6.715 -0.118,2.356 0.118,4.536 0.707,6.539 0.589,2.002 1.532,3.004 2.827,3.004 4.477,0 8.719,-0.059 12.724,-0.177 4.006,-0.118 7.54,0.177 10.603,0.884 3.181,0.707 5.655,2.061 7.422,4.064 1.885,1.885 2.828,4.889 2.828,9.013 0,3.652 -0.648,6.362 -1.944,8.129 -1.296,1.767 -2.945,3.004 -4.948,3.711 -2.003,0.707 -4.124,1.119 -6.362,1.237 -2.238,0 -4.359,0.118 -6.362,0.353 -1.649,0.236 -3.357,0.413 -5.125,0.531 -1.767,0 -3.357,0.235 -4.771,0.706 -1.414,0.354 -2.592,1.002 -3.534,1.944 -0.943,0.943 -1.414,2.415 -1.414,4.418 0,5.42 0.059,10.191 0.177,14.314 0.117,4.124 -0.177,7.54 -0.884,10.25 -0.707,2.71 -2.121,4.771 -4.241,6.185 -2.003,1.296 -5.243,1.944 -9.72,1.944 z"
       fill="#2c72ff"
       id="path13" />
    <path
       d="m 556.921,513.41 c -4.359,0 -7.835,-1.061 -10.426,-3.181 -2.474,-2.239 -4.359,-5.125 -5.655,-8.66 -1.179,-3.534 -1.944,-7.481 -2.298,-11.84 -0.235,-4.477 -0.353,-9.012 -0.353,-13.607 0,-4.477 0,-8.659 0,-12.547 0.118,-4.006 0.177,-8.07 0.177,-12.193 0,-4.242 0,-8.66 0,-13.254 0,-4.595 0,-9.72 0,-15.375 0,-0.589 -0.531,-0.942 -1.591,-1.06 -1.06,-0.236 -2.238,-0.354 -3.534,-0.354 -1.296,0 -2.533,0.059 -3.711,0.177 -1.178,0 -1.944,0 -2.298,0 -2.474,0 -4.948,-0.235 -7.422,-0.707 -2.356,-0.589 -4.477,-1.413 -6.362,-2.474 -1.885,-1.178 -3.416,-2.709 -4.594,-4.594 -1.179,-1.885 -1.768,-4.183 -1.768,-6.892 0,-4.124 1.061,-7.305 3.181,-9.543 2.121,-2.239 5.302,-3.888 9.543,-4.948 4.359,-1.061 9.779,-1.65 16.258,-1.767 6.48,-0.236 14.079,-0.354 22.797,-0.354 8.718,0 15.963,0.236 21.736,0.707 5.891,0.353 10.544,1.178 13.961,2.474 3.416,1.296 5.832,3.122 7.245,5.478 1.414,2.356 2.121,5.479 2.121,9.366 0,4.006 -1.06,7.305 -3.181,9.897 -2.121,2.591 -5.949,3.887 -11.487,3.887 -1.413,0 -3.004,-0.059 -4.771,-0.176 -1.767,-0.118 -3.476,-0.118 -5.125,0 -1.531,0.117 -2.827,0.412 -3.888,0.883 -1.06,0.354 -1.59,1.002 -1.59,1.944 0.235,4.713 0.353,9.013 0.353,12.901 0,3.77 -0.059,7.539 -0.176,11.309 0,3.653 0,7.423 0,11.31 0,3.77 0.058,8.012 0.176,12.724 0.236,6.009 0.236,11.487 0,16.435 -0.118,4.948 -0.765,9.248 -1.944,12.9 -1.06,3.535 -2.827,6.303 -5.301,8.306 -2.356,1.885 -5.714,2.828 -10.073,2.828 z"
       fill="#2c72ff"
       id="path14" />
    <path
       d="m 447.585,513.056 c -3.652,0 -6.715,-1.06 -9.189,-3.181 -2.474,-2.238 -4.477,-5.066 -6.009,-8.482 -1.531,-3.535 -2.709,-7.422 -3.534,-11.664 -0.707,-4.359 -1.237,-8.6 -1.59,-12.723 -0.354,-4.242 -0.531,-8.129 -0.531,-11.664 0,-3.652 0,-6.479 0,-8.482 0,-4.124 -0.117,-8.6 -0.353,-13.431 -0.118,-4.83 -0.118,-9.66 0,-14.491 0.236,-4.948 0.707,-9.719 1.414,-14.314 0.824,-4.595 2.12,-8.659 3.888,-12.193 1.885,-3.535 4.418,-6.362 7.598,-8.483 3.299,-2.12 7.482,-3.181 12.547,-3.181 2.239,0 5.007,-0.059 8.306,-0.176 3.417,-0.236 7.01,-0.354 10.78,-0.354 3.888,0 7.717,0.236 11.487,0.707 3.887,0.353 7.363,1.119 10.426,2.297 3.181,1.061 5.714,2.71 7.599,4.948 2.003,2.121 3.004,4.89 3.004,8.306 0,5.419 -1.296,9.484 -3.888,12.194 -2.474,2.592 -5.655,4.418 -9.542,5.478 -3.888,0.942 -8.13,1.414 -12.724,1.414 -4.595,0 -9.013,0.176 -13.254,0.53 -1.296,0.118 -2.356,1.178 -3.181,3.181 -0.707,2.003 -1.119,4.241 -1.237,6.715 -0.118,2.356 0.118,4.536 0.707,6.539 0.589,2.002 1.531,3.004 2.827,3.004 4.477,0 8.718,-0.059 12.724,-0.177 4.006,-0.118 7.54,0.177 10.603,0.884 3.181,0.707 5.655,2.061 7.422,4.064 1.885,1.885 2.828,4.889 2.828,9.013 0,3.652 -0.648,6.362 -1.944,8.129 -1.296,1.767 -2.945,3.004 -4.948,3.711 -2.003,0.707 -4.124,1.119 -6.362,1.237 -2.238,0 -4.359,0.118 -6.362,0.353 -1.649,0.236 -3.358,0.413 -5.125,0.531 -1.767,0 -3.357,0.235 -4.771,0.706 -1.414,0.354 -2.592,1.002 -3.534,1.944 -0.943,0.943 -1.414,2.415 -1.414,4.418 0,5.42 0.059,10.191 0.176,14.314 0.118,4.124 -0.176,7.54 -0.883,10.25 -0.707,2.71 -2.121,4.771 -4.241,6.185 -2.003,1.296 -5.243,1.944 -9.72,1.944 z"
       fill="#2c72ff"
       id="path15" />
    <path
       d="m 389.23,513.056 c -2.357,0 -4.949,-0.236 -7.776,-0.707 -2.71,-0.471 -5.243,-1.178 -7.599,-2.12 -2.238,-0.943 -4.123,-2.239 -5.655,-3.888 -1.531,-1.65 -2.297,-3.593 -2.297,-5.832 0,-2.71 0.471,-4.595 1.413,-5.655 0.943,-1.178 2.003,-2.238 3.181,-3.181 1.296,-0.942 2.474,-2.003 3.535,-3.181 1.178,-1.296 1.885,-3.357 2.12,-6.185 0.354,-3.181 0.589,-7.658 0.707,-13.43 0.118,-5.773 0.177,-11.723 0.177,-17.849 0,-6.244 -0.059,-12.193 -0.177,-17.848 -0.118,-5.773 -0.353,-10.191 -0.707,-13.254 -0.353,-3.535 -1.178,-5.773 -2.474,-6.716 -1.296,-0.942 -2.65,-1.649 -4.064,-2.12 -1.296,-0.471 -2.533,-1.237 -3.711,-2.298 -1.061,-1.06 -1.591,-3.357 -1.591,-6.892 0,-2.709 1.002,-4.83 3.004,-6.361 2.003,-1.65 4.418,-2.828 7.246,-3.535 2.827,-0.824 5.714,-1.355 8.659,-1.59 3.063,-0.236 5.655,-0.354 7.776,-0.354 2.474,0 5.242,0.177 8.305,0.53 3.064,0.354 5.891,1.002 8.483,1.944 2.71,0.943 4.948,2.239 6.715,3.888 1.885,1.532 2.828,3.535 2.828,6.009 0,2.238 -0.472,3.828 -1.414,4.771 -0.943,0.825 -2.003,1.649 -3.181,2.474 -1.06,0.707 -2.062,1.767 -3.004,3.181 -0.943,1.296 -1.473,3.652 -1.591,7.069 0,1.413 -0.059,3.77 -0.176,7.068 -0.118,3.181 -0.236,6.833 -0.354,10.957 -0.118,4.123 -0.235,8.482 -0.353,13.077 0,4.595 0,9.013 0,13.254 0,4.123 0,7.834 0,11.133 0.118,3.299 0.294,5.714 0.53,7.246 0.236,1.767 0.825,3.357 1.767,4.771 1.06,1.296 2.121,2.592 3.181,3.888 1.06,1.296 2.003,2.651 2.828,4.064 0.824,1.296 1.237,2.828 1.237,4.595 0,2.238 -0.825,4.182 -2.475,5.832 -1.649,1.649 -3.828,3.004 -6.538,4.064 -2.592,1.06 -5.537,1.885 -8.836,2.474 -3.299,0.471 -6.539,0.707 -9.719,0.707 z"
       fill="#2c72ff"
       id="path16" />
    <path
       d="m 340.546,389 c 5.302,0 9.543,1.001 12.724,3.004 3.181,1.885 4.771,4.654 4.771,8.306 0,2.238 -0.176,5.596 -0.53,10.073 -0.353,4.359 -0.942,9.484 -1.767,15.374 -0.707,5.773 -1.649,12.017 -2.828,18.732 -1.178,6.598 -2.65,13.195 -4.417,19.793 -1.65,6.597 -3.594,12.959 -5.832,19.085 -2.121,6.127 -4.595,11.546 -7.422,16.259 -2.828,4.594 -5.95,8.305 -9.366,11.133 -3.417,2.827 -7.187,4.241 -11.31,4.241 -3.535,0 -6.892,-1.001 -10.073,-3.004 -3.063,-2.003 -5.95,-4.713 -8.659,-8.129 -2.71,-3.417 -5.184,-7.422 -7.423,-12.017 -2.238,-4.595 -4.241,-9.484 -6.008,-14.668 -1.649,5.184 -3.475,10.073 -5.478,14.668 -1.885,4.595 -3.947,8.6 -6.185,12.017 -2.239,3.416 -4.654,6.126 -7.246,8.129 -2.592,2.003 -5.301,3.004 -8.129,3.004 -4.712,0 -9.013,-1.237 -12.9,-3.711 -3.77,-2.592 -7.187,-6.008 -10.25,-10.25 -3.063,-4.241 -5.773,-9.189 -8.129,-14.844 -2.356,-5.655 -4.418,-11.605 -6.185,-17.849 -1.767,-6.244 -3.299,-12.547 -4.595,-18.908 -1.178,-6.48 -2.179,-12.665 -3.004,-18.556 -0.707,-6.008 -1.237,-11.486 -1.59,-16.435 -0.236,-5.066 -0.354,-9.248 -0.354,-12.547 0,-3.77 1.414,-6.774 4.241,-9.012 2.946,-2.239 6.244,-3.358 9.897,-3.358 4.948,0 8.541,0.412 10.779,1.237 2.239,0.707 4.006,2.003 5.302,3.888 0.707,1.06 1.414,3.417 2.12,7.069 0.707,3.652 1.414,8.011 2.121,13.077 0.707,5.066 1.355,10.544 1.944,16.435 0.707,5.772 1.414,11.368 2.121,16.788 0.707,5.301 1.413,10.073 2.12,14.314 0.825,4.241 1.65,7.245 2.474,9.013 3.181,7.186 6.009,6.656 8.483,-1.591 0.471,-1.649 0.942,-4.3 1.414,-7.952 0.471,-3.652 0.942,-7.835 1.413,-12.547 0.472,-4.713 0.943,-9.661 1.414,-14.844 0.471,-5.184 0.943,-10.014 1.414,-14.491 0.471,-4.477 0.942,-8.365 1.414,-11.664 0.471,-3.298 0.942,-5.419 1.413,-6.362 h 0.177 c 0.707,-2.945 2.121,-5.301 4.241,-7.068 2.239,-1.767 4.889,-2.651 7.953,-2.651 4.476,0 7.598,0.471 9.366,1.414 1.767,0.824 3.18,2.061 4.241,3.711 0.353,0.471 0.589,0.942 0.707,1.413 0.235,0.354 0.471,0.766 0.707,1.238 0.824,2.002 1.531,4.83 2.12,8.482 0.707,3.652 1.355,7.717 1.944,12.194 0.707,4.476 1.355,9.189 1.944,14.137 0.707,4.83 1.414,9.543 2.121,14.137 0.706,4.477 1.472,8.66 2.297,12.547 0.942,3.888 1.944,7.069 3.004,9.543 1.885,4.006 3.299,5.891 4.241,5.655 0.943,-0.353 2.062,-2.592 3.358,-6.715 0.471,-1.649 1.001,-4.359 1.59,-8.129 0.59,-3.888 1.179,-8.306 1.768,-13.254 0.589,-5.066 1.178,-10.309 1.767,-15.728 0.589,-5.537 1.178,-10.662 1.767,-15.374 0.589,-4.831 1.119,-8.954 1.59,-12.371 0.472,-3.534 0.884,-5.772 1.238,-6.715 1.295,-3.534 2.945,-5.949 4.948,-7.245 2.002,-1.414 5.007,-2.121 9.012,-2.121 z"
       fill="#2c72ff"
       id="path17" />
    <path
       d="m 109.858,483.721 c 0,-2.828 0.471,-5.302 1.413,-7.422 1.061,-2.121 2.357,-3.888 3.888,-5.302 1.532,-1.531 3.24,-2.651 5.125,-3.357 2.003,-0.707 3.888,-1.061 5.655,-1.061 3.652,0 6.656,0.707 9.013,2.121 2.474,1.296 4.359,3.652 5.655,7.069 2.591,6.715 7.245,10.073 13.96,10.073 4.124,0 7.599,-0.943 10.427,-2.828 2.827,-2.003 4.241,-4.477 4.241,-7.422 0,-2.474 -1.473,-4.359 -4.418,-5.655 -2.827,-1.414 -6.362,-2.71 -10.603,-3.888 -4.241,-1.178 -8.895,-2.474 -13.961,-3.888 -5.066,-1.531 -9.719,-3.593 -13.961,-6.185 -4.241,-2.592 -7.834,-6.008 -10.779,-10.249 -2.828,-4.242 -4.242,-9.779 -4.242,-16.612 0,-5.891 1.12,-11.251 3.358,-16.081 2.356,-4.831 5.655,-8.954 9.896,-12.371 4.242,-3.416 9.425,-6.008 15.551,-7.775 6.127,-1.885 13.019,-2.828 20.676,-2.828 12.724,0 22.326,2.533 28.806,7.599 6.479,5.066 9.719,12.194 9.719,21.383 0,5.302 -1.414,9.189 -4.241,11.663 -2.828,2.475 -6.421,3.712 -10.78,3.712 -4.359,0 -7.481,-0.766 -9.366,-2.298 -1.885,-1.531 -3.534,-4.005 -4.948,-7.422 -1.178,-2.71 -2.651,-4.654 -4.418,-5.832 -1.767,-1.296 -4.124,-1.944 -7.069,-1.944 -3.77,0 -6.833,0.884 -9.189,2.651 -2.356,1.65 -3.535,3.652 -3.535,6.009 0,2.356 1.355,4.241 4.065,5.655 2.827,1.413 6.362,2.709 10.603,3.887 4.241,1.179 8.777,2.533 13.607,4.065 4.831,1.531 9.366,3.652 13.608,6.362 4.241,2.709 7.716,6.244 10.426,10.603 2.827,4.241 4.241,9.837 4.241,16.788 0,6.126 -1.178,11.663 -3.534,16.612 -2.239,4.948 -5.537,9.189 -9.896,12.723 -4.242,3.535 -9.484,6.244 -15.728,8.129 -6.244,1.885 -13.313,2.828 -21.206,2.828 -6.716,0 -12.724,-0.766 -18.026,-2.298 -5.183,-1.531 -9.542,-3.593 -13.077,-6.185 -3.534,-2.709 -6.244,-5.831 -8.129,-9.366 -1.885,-3.652 -2.827,-7.54 -2.827,-11.663 z"
       fill="#2c72ff"
       id="path18" />
  </g>
  <defs
     id="defs22">
    <filter
       id="filter0_i_489_7834"
       x="541.29901"
       y="125"
       width="360"
       height="200"
       filterUnits="userSpaceOnUse"
       color-interpolation-filters="sRGB">
      <feFlood
         flood-opacity="0"
         result="BackgroundImageFix"
         id="feFlood18" />
      <feBlend
         mode="normal"
         in="SourceGraphic"
         in2="BackgroundImageFix"
         result="shape"
         id="feBlend18" />
      <feColorMatrix
         in="SourceAlpha"
         type="matrix"
         values="0 0 0 0 0 0 0 0 0 0 0 0 0 0 0 0 0 0 127 0"
         result="hardAlpha"
         id="feColorMatrix18" />
      <feOffset
         dx="-24"
         id="feOffset18" />
      <feComposite
         in2="hardAlpha"
         operator="arithmetic"
         k2="-1"
         k3="1"
         id="feComposite18"
         k1="0"
         k4="0" />
      <feColorMatrix
         type="matrix"
         values="0 0 0 0 0 0 0 0 0 0 0 0 0 0 0 0 0 0 0.1 0"
         id="feColorMatrix19" />
      <feBlend
         mode="normal"
         in2="shape"
         result="effect1_innerShadow_489_7834"
         id="feBlend19" />
    </filter>
    <filter
       id="filter1_d_489_7834"
       x="567.19897"
       y="140.89999"
       width="312.63501"
       height="180.2"
       filterUnits="userSpaceOnUse"
       color-interpolation-filters="sRGB">
      <feFlood
         flood-opacity="0"
         result="BackgroundImageFix"
         id="feFlood19" />
      <feColorMatrix
         in="SourceAlpha"
         type="matrix"
         values="0 0 0 0 0 0 0 0 0 0 0 0 0 0 0 0 0 0 127 0"
         result="hardAlpha"
         id="feColorMatrix20" />
      <feOffset
         dx="7"
         dy="6"
         id="feOffset20" />
      <feGaussianBlur
         stdDeviation="10.55"
         id="feGaussianBlur20" />
      <feComposite
         in2="hardAlpha"
         operator="out"
         id="feComposite20" />
      <feColorMatrix
         type="matrix"
         values="0 0 0 0 0 0 0 0 0 0 0 0 0 0 0 0 0 0 0.25 0"
         id="feColorMatrix21" />
      <feBlend
         mode="normal"
         in2="BackgroundImageFix"
         result="effect1_dropShadow_489_7834"
         id="feBlend21" />
      <feBlend
         mode="normal"
         in="SourceGraphic"
         in2="effect1_dropShadow_489_7834"
         result="shape"
         id="feBlend22" />
    </filter>
  </defs>
</svg>
