<svg width="1440" height="640" viewBox="0 0 1440 640" fill="none" xmlns="http://www.w3.org/2000/svg">
<g filter="url(#filter0_i_489_7834)">
<rect x="541.299" y="125" width="360" height="200" rx="32" fill="#2C72FF"/>
<g filter="url(#filter1_d_489_7834)">
<rect x="760.187" y="164.948" width="142.734" height="21.6" rx="10.8" transform="rotate(115.093 760.187 164.948)" fill="#F4961D"/>
<path fill-rule="evenodd" clip-rule="evenodd" d="M620.179 182.788C620.179 176.824 625.014 171.988 630.979 171.988C636.943 171.988 641.779 176.824 641.779 182.788V210.868H669.859C675.823 210.868 680.659 215.704 680.659 221.668C680.659 227.633 675.823 232.468 669.859 232.468H641.779V260.548C641.779 266.513 636.943 271.348 630.979 271.348C625.014 271.348 620.179 266.513 620.179 260.548V232.468H592.099C586.134 232.468 581.299 227.633 581.299 221.668C581.299 215.704 586.134 210.868 592.099 210.868H620.179V182.788Z" fill="#F4961D"/>
<path fill-rule="evenodd" clip-rule="evenodd" d="M777.27 198.593C772.666 195.934 771.088 190.047 773.747 185.443C776.405 180.839 782.292 179.261 786.896 181.92L846.919 216.574C851.523 219.232 853.1 225.119 850.442 229.723C849.344 231.625 847.696 233.01 845.815 233.794L786.739 267.901C782.135 270.559 776.248 268.981 773.59 264.377C770.932 259.773 772.509 253.886 777.113 251.228L822.775 224.865L777.27 198.593Z" fill="#F4961D"/>
</g>
</g>
<circle cx="503.299" cy="238" r="16" fill="#F4961D"/>
<rect x="935.616" y="255" width="33" height="33" transform="rotate(27.657 935.616 255)" fill="#F4961D"/>
<rect x="949.381" y="186" width="10.0493" height="34.3602" transform="rotate(13.6281 949.381 186)" fill="#F4961D"/>
<rect x="967.701" y="203.04" width="10.0493" height="33" transform="rotate(102.72 967.701 203.04)" fill="#F4961D"/>
<path d="M478.338 156.735L516.465 164.801L490.416 193.788L478.338 156.735Z" fill="#F4961D"/>
<path d="M1237.72 483.721C1237.72 480.893 1238.19 478.419 1239.13 476.299C1240.19 474.178 1241.49 472.411 1243.02 470.997C1244.55 469.466 1246.26 468.346 1248.15 467.64C1250.15 466.933 1252.03 466.579 1253.8 466.579C1257.45 466.579 1260.46 467.286 1262.81 468.7C1265.29 469.996 1267.17 472.352 1268.47 475.769C1271.06 482.484 1275.71 485.842 1282.43 485.842C1286.55 485.842 1290.03 484.899 1292.85 483.014C1295.68 481.011 1297.1 478.537 1297.1 475.592C1297.1 473.118 1295.62 471.233 1292.68 469.937C1289.85 468.523 1286.32 467.227 1282.08 466.049C1277.83 464.871 1273.18 463.575 1268.11 462.161C1263.05 460.63 1258.39 458.568 1254.15 455.976C1249.91 453.384 1246.32 449.968 1243.37 445.727C1240.55 441.485 1239.13 435.948 1239.13 429.115C1239.13 423.224 1240.25 417.864 1242.49 413.034C1244.85 408.203 1248.15 404.08 1252.39 400.663C1256.63 397.247 1261.81 394.655 1267.94 392.888C1274.06 391.003 1280.96 390.06 1288.61 390.06C1301.34 390.06 1310.94 392.593 1317.42 397.659C1323.9 402.725 1327.14 409.853 1327.14 419.042C1327.14 424.344 1325.72 428.231 1322.9 430.705C1320.07 433.18 1316.48 434.417 1312.12 434.417C1307.76 434.417 1304.64 433.651 1302.75 432.119C1300.87 430.588 1299.22 428.114 1297.8 424.697C1296.62 421.987 1295.15 420.043 1293.39 418.865C1291.62 417.569 1289.26 416.921 1286.32 416.921C1282.55 416.921 1279.48 417.805 1277.13 419.572C1274.77 421.222 1273.59 423.224 1273.59 425.581C1273.59 427.937 1274.95 429.822 1277.66 431.236C1280.48 432.649 1284.02 433.945 1288.26 435.123C1292.5 436.302 1297.04 437.656 1301.87 439.188C1306.7 440.719 1311.23 442.84 1315.47 445.55C1319.72 448.259 1323.19 451.794 1325.9 456.153C1328.73 460.394 1330.14 465.99 1330.14 472.941C1330.14 479.067 1328.96 484.604 1326.61 489.553C1324.37 494.501 1321.07 498.742 1316.71 502.276C1312.47 505.811 1307.23 508.52 1300.98 510.405C1294.74 512.29 1287.67 513.233 1279.78 513.233C1273.06 513.233 1267.05 512.467 1261.75 510.935C1256.57 509.404 1252.21 507.342 1248.68 504.75C1245.14 502.041 1242.43 498.919 1240.55 495.384C1238.66 491.732 1237.72 487.844 1237.72 483.721Z" fill="#F4961D"/>
<path d="M1159.62 512.702C1155.26 512.702 1151.84 510.641 1149.37 506.517C1146.89 502.276 1145.01 497.092 1143.71 490.966C1142.53 484.84 1141.77 478.36 1141.41 471.527C1141.18 464.694 1141.06 458.627 1141.06 453.325C1141.06 446.492 1141.18 439.364 1141.41 431.942C1141.65 424.402 1142.41 417.51 1143.71 411.266C1145.12 405.022 1147.3 399.897 1150.25 395.892C1153.31 391.768 1157.67 389.707 1163.33 389.707C1165.09 389.707 1166.57 390.001 1167.74 390.59C1168.92 391.061 1169.92 391.65 1170.75 392.357C1171.57 393.064 1172.28 393.712 1172.87 394.301C1173.58 394.772 1174.28 395.008 1174.99 395.008C1175.93 395.008 1176.76 394.772 1177.46 394.301C1178.29 393.712 1179.23 393.123 1180.29 392.534C1181.35 391.945 1182.77 391.415 1184.53 390.944C1186.3 390.355 1188.71 390.06 1191.78 390.06C1195.67 390.06 1199.38 390.885 1202.91 392.534C1206.45 394.183 1209.51 396.481 1212.1 399.426C1214.81 402.371 1216.93 405.906 1218.46 410.029C1220.11 414.153 1220.94 418.747 1220.94 423.813C1220.94 427.347 1220.23 430.528 1218.82 433.356C1217.52 436.183 1215.87 438.716 1213.87 440.955C1211.86 443.193 1209.69 445.019 1207.33 446.433C1204.97 447.847 1202.73 448.907 1200.61 449.614C1203.68 449.732 1206.68 450.439 1209.63 451.735C1212.69 452.913 1215.4 454.503 1217.76 456.506C1220.11 458.509 1222.06 460.924 1223.59 463.751C1225.12 466.579 1225.88 469.701 1225.88 473.117C1225.88 479.715 1224.35 485.488 1221.29 490.436C1218.23 495.384 1214.22 499.507 1209.27 502.806C1204.32 506.105 1198.67 508.579 1192.31 510.228C1186.06 511.878 1179.76 512.702 1173.4 512.702H1159.62ZM1179.76 433.709C1181.53 433.709 1183.06 432.767 1184.36 430.882C1185.77 428.997 1186.48 426.876 1186.48 424.52C1186.48 422.517 1185.89 420.868 1184.71 419.572C1183.65 418.276 1182.18 417.628 1180.29 417.628C1178.29 417.628 1176.64 418.335 1175.34 419.749C1174.16 421.162 1173.58 423.047 1173.58 425.404C1173.58 427.76 1174.16 429.763 1175.34 431.412C1176.64 432.944 1178.11 433.709 1179.76 433.709ZM1181.35 484.781C1184.41 484.781 1186.59 483.603 1187.89 481.247C1189.3 478.89 1190.01 476.475 1190.01 474.001C1190.01 471.88 1189.13 470.054 1187.36 468.523C1185.59 466.873 1183.77 466.049 1181.88 466.049C1180.11 466.049 1178.47 466.756 1176.93 468.169C1175.4 469.465 1174.64 471.822 1174.64 475.238C1174.64 479.008 1175.34 481.541 1176.76 482.837C1178.17 484.133 1179.7 484.781 1181.35 484.781Z" fill="#F4961D"/>
<path d="M1115.45 513.056C1111.44 513.056 1107.85 512.467 1104.67 511.289C1101.6 510.111 1099.13 507.755 1097.25 504.22C1095.83 501.511 1094.71 498.683 1093.89 495.738C1093.18 492.792 1091.71 489.965 1089.47 487.255C1087.94 485.488 1086.17 484.192 1084.17 483.367C1082.17 482.543 1080.1 482.13 1077.98 482.13C1076.22 482.13 1074.45 482.425 1072.68 483.014C1070.91 483.603 1069.26 484.369 1067.73 485.311C1065.61 486.725 1064.02 488.433 1062.96 490.436C1062.02 492.321 1061.19 494.324 1060.49 496.445C1059.9 498.447 1059.31 500.509 1058.72 502.63C1058.25 504.633 1057.48 506.4 1056.42 507.931C1055.13 509.816 1053.36 511.23 1051.12 512.173C1048.88 513.115 1045.29 513.586 1040.34 513.586C1036.69 513.586 1033.39 512.408 1030.45 510.052C1027.62 507.578 1026.2 504.456 1026.2 500.686C1026.2 497.858 1026.62 493.146 1027.44 486.548C1028.38 479.951 1029.74 472.529 1031.51 464.282C1033.39 456.035 1035.75 447.494 1038.57 438.658C1041.52 429.704 1044.94 421.575 1048.82 414.271C1052.71 406.849 1057.13 400.781 1062.08 396.069C1067.03 391.356 1072.56 389 1078.69 389C1084.82 389 1090.35 391.415 1095.3 396.245C1100.25 400.958 1104.61 407.025 1108.38 414.447C1112.15 421.87 1115.39 430.058 1118.1 439.011C1120.93 447.965 1123.22 456.683 1124.99 465.165C1126.76 473.53 1128.05 481.07 1128.88 487.785C1129.7 494.501 1130.11 499.331 1130.11 502.276C1130.11 505.928 1129 508.638 1126.76 510.405C1124.52 512.173 1120.75 513.056 1115.45 513.056ZM1087.7 446.61C1087.47 443.9 1086.52 441.367 1084.88 439.011C1083.23 436.655 1081.16 435.477 1078.69 435.477C1075.63 435.477 1073.15 436.773 1071.27 439.365C1069.5 441.957 1068.62 444.902 1068.62 448.201C1068.62 451.499 1069.56 454.032 1071.44 455.799C1073.33 457.567 1075.57 458.45 1078.16 458.45C1079.57 458.45 1080.87 458.097 1082.05 457.39C1083.23 456.565 1084.23 455.623 1085.05 454.562C1085.99 453.384 1086.7 452.088 1087.17 450.675C1087.64 449.261 1087.82 447.906 1087.7 446.61Z" fill="#F4961D"/>
<path d="M992.261 513.056C985.428 513.056 979.655 512.644 974.943 511.819C970.348 510.877 966.578 509.109 963.633 506.518C960.805 503.926 958.744 500.215 957.448 495.384C956.27 490.554 955.681 484.251 955.681 476.475C955.681 466.579 955.563 456.565 955.327 446.433C955.209 436.184 955.563 426.877 956.387 418.512C957.212 410.147 958.744 403.314 960.982 398.013C963.338 392.711 966.991 390.06 971.939 390.06C976.887 390.06 980.48 391.474 982.718 394.302C985.075 397.011 986.606 400.604 987.313 405.081C988.138 409.44 988.432 414.447 988.197 420.102C988.079 425.757 988.02 431.471 988.02 437.244C988.02 443.488 987.843 449.614 987.49 455.623C987.254 461.513 987.313 466.697 987.667 471.174C988.02 475.651 988.904 479.244 990.317 481.954C991.849 484.546 994.382 485.665 997.916 485.311C999.801 485.076 1001.69 484.899 1003.57 484.781C1005.57 484.546 1007.46 484.428 1009.23 484.428C1012.88 484.428 1015.94 485.194 1018.42 486.725C1020.89 488.257 1022.13 491.438 1022.13 496.268C1022.13 500.509 1021.48 503.749 1020.18 505.987C1019 508.226 1017.18 509.875 1014.7 510.935C1012.23 511.996 1009.11 512.644 1005.34 512.879C1001.69 512.997 997.327 513.056 992.261 513.056Z" fill="#F4961D"/>
<path d="M897.641 453.856C897.641 455.858 897.7 458.745 897.818 462.515C897.935 466.285 897.876 470.349 897.641 474.708C897.523 479.067 897.111 483.544 896.404 488.139C895.815 492.616 894.813 496.68 893.4 500.332C892.104 503.985 890.278 506.989 887.921 509.345C885.565 511.701 882.561 512.879 878.909 512.879C875.963 512.879 872.959 511.525 869.896 508.815C866.951 506.105 864.123 502.748 861.414 498.742C858.704 494.619 856.053 490.201 853.461 485.488C850.987 480.658 848.69 476.24 846.569 472.234C844.567 468.111 842.74 464.694 841.091 461.985C839.442 459.275 838.146 457.92 837.203 457.92C836.379 457.92 835.789 459.216 835.436 461.808C835.083 464.4 834.847 467.345 834.729 470.644C834.729 473.825 834.788 476.888 834.906 479.833C835.024 482.778 835.083 484.604 835.083 485.311C835.083 487.785 835.142 490.613 835.259 493.794C835.495 496.975 835.259 499.979 834.552 502.806C833.846 505.634 832.491 508.049 830.488 510.052C828.603 512.055 825.54 513.056 821.299 513.056C816.586 513.056 812.875 510.994 810.165 506.871C807.574 502.63 805.63 497.21 804.334 490.613C803.038 483.898 802.272 476.534 802.036 468.523C801.801 460.394 801.683 452.442 801.683 444.666C801.683 437.48 801.919 430.588 802.39 423.99C802.979 417.393 804.039 411.62 805.571 406.672C807.22 401.606 809.458 397.6 812.286 394.655C815.113 391.592 818.766 390.06 823.243 390.06C827.13 390.06 830.665 391.533 833.846 394.478C837.027 397.306 839.972 400.958 842.682 405.435C845.391 409.794 847.806 414.506 849.927 419.572C852.048 424.638 853.933 429.41 855.582 433.886C857.349 438.245 858.881 441.898 860.177 444.843C861.59 447.67 862.768 449.084 863.711 449.084C864.771 449.084 865.36 447.67 865.478 444.843C865.596 441.898 865.596 438.245 865.478 433.886C865.478 429.41 865.478 424.638 865.478 419.572C865.596 414.506 866.008 409.794 866.715 405.435C867.422 400.958 868.6 397.306 870.25 394.478C871.899 391.533 874.373 390.06 877.672 390.06C881.677 390.06 884.917 391.238 887.391 393.595C889.983 395.833 891.986 398.778 893.4 402.431C894.931 406.083 895.991 410.265 896.581 414.978C897.287 419.572 897.7 424.226 897.818 428.938C897.935 433.651 897.935 438.187 897.818 442.546C897.7 446.905 897.641 450.675 897.641 453.856Z" fill="#2C72FF"/>
<path d="M742.132 513.056C731.882 513.056 723.694 511.23 717.568 507.578C711.442 503.926 706.729 498.624 703.431 491.673C700.132 484.722 697.952 476.122 696.892 465.872C695.832 455.623 695.302 443.959 695.302 430.882C695.302 424.874 695.478 419.396 695.832 414.447C696.185 409.499 697.01 405.199 698.306 401.547C699.602 397.895 701.487 395.067 703.961 393.065C706.553 391.062 710.028 390.06 714.387 390.06C719.335 390.06 723.046 391.121 725.52 393.241C727.994 395.244 729.644 398.072 730.469 401.724C731.411 405.258 731.823 409.44 731.706 414.271C731.706 419.101 731.706 424.344 731.706 429.999C731.706 435.536 731.706 441.309 731.706 447.317C731.823 453.208 732.177 458.627 732.766 463.575C733.355 468.405 734.415 472.411 735.947 475.592C737.478 478.773 739.658 480.363 742.485 480.363C745.077 480.363 747.021 478.891 748.317 475.945C749.731 473 750.732 469.348 751.321 464.989C752.028 460.512 752.382 455.682 752.382 450.498C752.499 445.196 752.558 440.307 752.558 435.83C752.558 428.762 752.499 422.4 752.382 416.745C752.264 411.09 752.676 406.318 753.619 402.431C754.679 398.425 756.505 395.362 759.097 393.241C761.689 391.121 765.694 390.06 771.114 390.06C776.062 390.06 779.714 391.533 782.07 394.478C784.426 397.306 786.017 401.017 786.842 405.611C787.784 410.088 788.196 415.154 788.079 420.809C788.079 426.346 788.079 431.884 788.079 437.421C788.079 448.731 787.607 459.039 786.665 468.346C785.84 477.654 783.837 485.606 780.656 492.203C777.593 498.801 772.999 503.926 766.872 507.578C760.864 511.23 752.617 513.056 742.132 513.056Z" fill="#2C72FF"/>
<path d="M632.972 513.056C629.32 513.056 626.257 511.996 623.783 509.875C621.309 507.637 619.306 504.809 617.775 501.393C616.243 497.858 615.065 493.971 614.24 489.729C613.533 485.37 613.003 481.129 612.65 477.006C612.296 472.764 612.12 468.877 612.12 465.342C612.12 461.69 612.12 458.863 612.12 456.86C612.12 452.736 612.002 448.26 611.766 443.429C611.648 438.599 611.648 433.769 611.766 428.938C612.002 423.99 612.473 419.219 613.18 414.624C614.005 410.029 615.3 405.965 617.068 402.431C618.953 398.896 621.486 396.069 624.666 393.948C627.965 391.828 632.148 390.767 637.213 390.767C639.452 390.767 642.221 390.708 645.519 390.591C648.936 390.355 652.529 390.237 656.299 390.237C660.187 390.237 664.016 390.473 667.786 390.944C671.674 391.297 675.149 392.063 678.212 393.241C681.393 394.302 683.926 395.951 685.811 398.189C687.814 400.31 688.815 403.079 688.815 406.495C688.815 411.914 687.519 415.979 684.927 418.689C682.453 421.281 679.272 423.107 675.385 424.167C671.497 425.109 667.256 425.581 662.661 425.581C658.066 425.581 653.648 425.757 649.407 426.111C648.111 426.229 647.051 427.289 646.226 429.292C645.519 431.295 645.107 433.533 644.989 436.007C644.871 438.363 645.107 440.543 645.696 442.546C646.285 444.548 647.228 445.55 648.523 445.55C653 445.55 657.242 445.491 661.247 445.373C665.253 445.255 668.787 445.55 671.85 446.257C675.031 446.964 677.505 448.318 679.272 450.321C681.157 452.206 682.1 455.21 682.1 459.334C682.1 462.986 681.452 465.696 680.156 467.463C678.86 469.23 677.211 470.467 675.208 471.174C673.205 471.881 671.084 472.293 668.846 472.411C666.608 472.411 664.487 472.529 662.484 472.764C660.835 473 659.127 473.177 657.359 473.295C655.592 473.295 654.002 473.53 652.588 474.001C651.174 474.355 649.996 475.003 649.054 475.945C648.111 476.888 647.64 478.36 647.64 480.363C647.64 485.783 647.699 490.554 647.817 494.677C647.934 498.801 647.64 502.217 646.933 504.927C646.226 507.637 644.812 509.698 642.692 511.112C640.689 512.408 637.449 513.056 632.972 513.056Z" fill="#2C72FF"/>
<path d="M556.921 513.41C552.562 513.41 549.086 512.349 546.495 510.229C544.021 507.99 542.136 505.104 540.84 501.569C539.661 498.035 538.896 494.088 538.542 489.729C538.307 485.252 538.189 480.717 538.189 476.122C538.189 471.645 538.189 467.463 538.189 463.575C538.307 459.569 538.366 455.505 538.366 451.382C538.366 447.14 538.366 442.722 538.366 438.128C538.366 433.533 538.366 428.408 538.366 422.753C538.366 422.164 537.835 421.811 536.775 421.693C535.715 421.457 534.537 421.339 533.241 421.339C531.945 421.339 530.708 421.398 529.53 421.516C528.352 421.516 527.586 421.516 527.232 421.516C524.758 421.516 522.284 421.281 519.81 420.809C517.454 420.22 515.333 419.396 513.448 418.335C511.563 417.157 510.032 415.626 508.854 413.741C507.675 411.856 507.086 409.558 507.086 406.849C507.086 402.725 508.147 399.544 510.267 397.306C512.388 395.067 515.569 393.418 519.81 392.358C524.169 391.297 529.589 390.708 536.068 390.591C542.548 390.355 550.147 390.237 558.865 390.237C567.583 390.237 574.828 390.473 580.601 390.944C586.492 391.297 591.145 392.122 594.562 393.418C597.978 394.714 600.394 396.54 601.807 398.896C603.221 401.252 603.928 404.375 603.928 408.262C603.928 412.268 602.868 415.567 600.747 418.159C598.626 420.75 594.798 422.046 589.26 422.046C587.847 422.046 586.256 421.987 584.489 421.87C582.722 421.752 581.013 421.752 579.364 421.87C577.833 421.987 576.537 422.282 575.476 422.753C574.416 423.107 573.886 423.755 573.886 424.697C574.121 429.41 574.239 433.71 574.239 437.598C574.239 441.368 574.18 445.137 574.063 448.907C574.063 452.56 574.063 456.33 574.063 460.217C574.063 463.987 574.121 468.229 574.239 472.941C574.475 478.95 574.475 484.428 574.239 489.376C574.121 494.324 573.474 498.624 572.295 502.276C571.235 505.811 569.468 508.579 566.994 510.582C564.638 512.467 561.28 513.41 556.921 513.41Z" fill="#2C72FF"/>
<path d="M447.585 513.056C443.933 513.056 440.87 511.996 438.396 509.875C435.922 507.637 433.919 504.809 432.387 501.393C430.856 497.858 429.678 493.971 428.853 489.729C428.146 485.37 427.616 481.129 427.263 477.006C426.909 472.764 426.732 468.877 426.732 465.342C426.732 461.69 426.732 458.863 426.732 456.86C426.732 452.736 426.615 448.26 426.379 443.429C426.261 438.599 426.261 433.769 426.379 428.938C426.615 423.99 427.086 419.219 427.793 414.624C428.617 410.029 429.913 405.965 431.681 402.431C433.566 398.896 436.099 396.069 439.279 393.948C442.578 391.828 446.761 390.767 451.826 390.767C454.065 390.767 456.833 390.708 460.132 390.591C463.549 390.355 467.142 390.237 470.912 390.237C474.8 390.237 478.629 390.473 482.399 390.944C486.286 391.297 489.762 392.063 492.825 393.241C496.006 394.302 498.539 395.951 500.424 398.189C502.427 400.31 503.428 403.079 503.428 406.495C503.428 411.914 502.132 415.979 499.54 418.689C497.066 421.281 493.885 423.107 489.998 424.167C486.11 425.109 481.868 425.581 477.274 425.581C472.679 425.581 468.261 425.757 464.02 426.111C462.724 426.229 461.664 427.289 460.839 429.292C460.132 431.295 459.72 433.533 459.602 436.007C459.484 438.363 459.72 440.543 460.309 442.546C460.898 444.548 461.84 445.55 463.136 445.55C467.613 445.55 471.854 445.491 475.86 445.373C479.866 445.255 483.4 445.55 486.463 446.257C489.644 446.964 492.118 448.318 493.885 450.321C495.77 452.206 496.713 455.21 496.713 459.334C496.713 462.986 496.065 465.696 494.769 467.463C493.473 469.23 491.824 470.467 489.821 471.174C487.818 471.881 485.697 472.293 483.459 472.411C481.221 472.411 479.1 472.529 477.097 472.764C475.448 473 473.739 473.177 471.972 473.295C470.205 473.295 468.615 473.53 467.201 474.001C465.787 474.355 464.609 475.003 463.667 475.945C462.724 476.888 462.253 478.36 462.253 480.363C462.253 485.783 462.312 490.554 462.429 494.677C462.547 498.801 462.253 502.217 461.546 504.927C460.839 507.637 459.425 509.698 457.305 511.112C455.302 512.408 452.062 513.056 447.585 513.056Z" fill="#2C72FF"/>
<path d="M389.23 513.056C386.873 513.056 384.281 512.82 381.454 512.349C378.744 511.878 376.211 511.171 373.855 510.229C371.617 509.286 369.732 507.99 368.2 506.341C366.669 504.691 365.903 502.748 365.903 500.509C365.903 497.799 366.374 495.914 367.316 494.854C368.259 493.676 369.319 492.616 370.497 491.673C371.793 490.731 372.971 489.67 374.032 488.492C375.21 487.196 375.917 485.135 376.152 482.307C376.506 479.126 376.741 474.649 376.859 468.877C376.977 463.104 377.036 457.154 377.036 451.028C377.036 444.784 376.977 438.835 376.859 433.18C376.741 427.407 376.506 422.989 376.152 419.926C375.799 416.391 374.974 414.153 373.678 413.21C372.382 412.268 371.028 411.561 369.614 411.09C368.318 410.619 367.081 409.853 365.903 408.792C364.842 407.732 364.312 405.435 364.312 401.9C364.312 399.191 365.314 397.07 367.316 395.539C369.319 393.889 371.734 392.711 374.562 392.004C377.389 391.18 380.276 390.649 383.221 390.414C386.284 390.178 388.876 390.06 390.997 390.06C393.471 390.06 396.239 390.237 399.302 390.59C402.366 390.944 405.193 391.592 407.785 392.534C410.495 393.477 412.733 394.773 414.5 396.422C416.385 397.954 417.328 399.957 417.328 402.431C417.328 404.669 416.856 406.259 415.914 407.202C414.971 408.027 413.911 408.851 412.733 409.676C411.673 410.383 410.671 411.443 409.729 412.857C408.786 414.153 408.256 416.509 408.138 419.926C408.138 421.339 408.079 423.696 407.962 426.994C407.844 430.175 407.726 433.827 407.608 437.951C407.49 442.074 407.373 446.433 407.255 451.028C407.255 455.623 407.255 460.041 407.255 464.282C407.255 468.405 407.255 472.116 407.255 475.415C407.373 478.714 407.549 481.129 407.785 482.661C408.021 484.428 408.61 486.018 409.552 487.432C410.612 488.728 411.673 490.024 412.733 491.32C413.793 492.616 414.736 493.971 415.561 495.384C416.385 496.68 416.798 498.212 416.798 499.979C416.798 502.217 415.973 504.161 414.323 505.811C412.674 507.46 410.495 508.815 407.785 509.875C405.193 510.935 402.248 511.76 398.949 512.349C395.65 512.82 392.41 513.056 389.23 513.056Z" fill="#2C72FF"/>
<path d="M340.546 389C345.848 389 350.089 390.001 353.27 392.004C356.451 393.889 358.041 396.658 358.041 400.31C358.041 402.548 357.865 405.906 357.511 410.383C357.158 414.742 356.569 419.867 355.744 425.757C355.037 431.53 354.095 437.774 352.916 444.489C351.738 451.087 350.266 457.684 348.499 464.282C346.849 470.879 344.905 477.241 342.667 483.367C340.546 489.494 338.072 494.913 335.245 499.626C332.417 504.22 329.295 507.931 325.879 510.759C322.462 513.586 318.692 515 314.569 515C311.034 515 307.677 513.999 304.496 511.996C301.433 509.993 298.546 507.283 295.837 503.867C293.127 500.45 290.653 496.445 288.414 491.85C286.176 487.255 284.173 482.366 282.406 477.182C280.757 482.366 278.931 487.255 276.928 491.85C275.043 496.445 272.981 500.45 270.743 503.867C268.504 507.283 266.089 509.993 263.497 511.996C260.905 513.999 258.196 515 255.368 515C250.656 515 246.355 513.763 242.468 511.289C238.698 508.697 235.281 505.281 232.218 501.039C229.155 496.798 226.445 491.85 224.089 486.195C221.733 480.54 219.671 474.59 217.904 468.346C216.137 462.102 214.605 455.799 213.309 449.438C212.131 442.958 211.13 436.773 210.305 430.882C209.598 424.874 209.068 419.396 208.715 414.447C208.479 409.381 208.361 405.199 208.361 401.9C208.361 398.13 209.775 395.126 212.602 392.888C215.548 390.649 218.846 389.53 222.499 389.53C227.447 389.53 231.04 389.942 233.278 390.767C235.517 391.474 237.284 392.77 238.58 394.655C239.287 395.715 239.994 398.072 240.7 401.724C241.407 405.376 242.114 409.735 242.821 414.801C243.528 419.867 244.176 425.345 244.765 431.236C245.472 437.008 246.179 442.604 246.886 448.024C247.593 453.325 248.299 458.097 249.006 462.338C249.831 466.579 250.656 469.583 251.48 471.351C254.661 478.537 257.489 478.007 259.963 469.76C260.434 468.111 260.905 465.46 261.377 461.808C261.848 458.156 262.319 453.973 262.79 449.261C263.262 444.548 263.733 439.6 264.204 434.417C264.675 429.233 265.147 424.403 265.618 419.926C266.089 415.449 266.56 411.561 267.032 408.262C267.503 404.964 267.974 402.843 268.445 401.9H268.622C269.329 398.955 270.743 396.599 272.863 394.832C275.102 393.065 277.752 392.181 280.816 392.181C285.292 392.181 288.414 392.652 290.182 393.595C291.949 394.419 293.362 395.656 294.423 397.306C294.776 397.777 295.012 398.248 295.13 398.719C295.365 399.073 295.601 399.485 295.837 399.957C296.661 401.959 297.368 404.787 297.957 408.439C298.664 412.091 299.312 416.156 299.901 420.633C300.608 425.109 301.256 429.822 301.845 434.77C302.552 439.6 303.259 444.313 303.966 448.907C304.672 453.384 305.438 457.567 306.263 461.454C307.205 465.342 308.207 468.523 309.267 470.997C311.152 475.003 312.566 476.888 313.508 476.652C314.451 476.299 315.57 474.06 316.866 469.937C317.337 468.288 317.867 465.578 318.456 461.808C319.046 457.92 319.635 453.502 320.224 448.554C320.813 443.488 321.402 438.245 321.991 432.826C322.58 427.289 323.169 422.164 323.758 417.452C324.347 412.621 324.877 408.498 325.348 405.081C325.82 401.547 326.232 399.309 326.586 398.366C327.881 394.832 329.531 392.417 331.534 391.121C333.536 389.707 336.541 389 340.546 389Z" fill="#2C72FF"/>
<path d="M109.858 483.721C109.858 480.893 110.329 478.419 111.271 476.299C112.332 474.178 113.628 472.411 115.159 470.997C116.691 469.466 118.399 468.346 120.284 467.64C122.287 466.933 124.172 466.579 125.939 466.579C129.591 466.579 132.595 467.286 134.952 468.7C137.426 469.996 139.311 472.352 140.607 475.769C143.198 482.484 147.852 485.842 154.567 485.842C158.691 485.842 162.166 484.899 164.994 483.014C167.821 481.011 169.235 478.537 169.235 475.592C169.235 473.118 167.762 471.233 164.817 469.937C161.99 468.523 158.455 467.227 154.214 466.049C149.973 464.871 145.319 463.575 140.253 462.161C135.187 460.63 130.534 458.568 126.292 455.976C122.051 453.384 118.458 449.968 115.513 445.727C112.685 441.485 111.271 435.948 111.271 429.115C111.271 423.224 112.391 417.864 114.629 413.034C116.985 408.203 120.284 404.08 124.525 400.663C128.767 397.247 133.95 394.655 140.076 392.888C146.203 391.003 153.095 390.06 160.752 390.06C173.476 390.06 183.078 392.593 189.558 397.659C196.037 402.725 199.277 409.853 199.277 419.042C199.277 424.344 197.863 428.231 195.036 430.705C192.208 433.18 188.615 434.417 184.256 434.417C179.897 434.417 176.775 433.651 174.89 432.119C173.005 430.588 171.356 428.114 169.942 424.697C168.764 421.987 167.291 420.043 165.524 418.865C163.757 417.569 161.4 416.921 158.455 416.921C154.685 416.921 151.622 417.805 149.266 419.572C146.91 421.222 145.731 423.224 145.731 425.581C145.731 427.937 147.086 429.822 149.796 431.236C152.623 432.649 156.158 433.945 160.399 435.123C164.64 436.302 169.176 437.656 174.006 439.188C178.837 440.719 183.372 442.84 187.614 445.55C191.855 448.259 195.33 451.794 198.04 456.153C200.867 460.394 202.281 465.99 202.281 472.941C202.281 479.067 201.103 484.604 198.747 489.553C196.508 494.501 193.21 498.742 188.851 502.276C184.609 505.811 179.367 508.52 173.123 510.405C166.879 512.29 159.81 513.233 151.917 513.233C145.201 513.233 139.193 512.467 133.891 510.935C128.708 509.404 124.349 507.342 120.814 504.75C117.28 502.041 114.57 498.919 112.685 495.384C110.8 491.732 109.858 487.844 109.858 483.721Z" fill="#2C72FF"/>
<defs>
<filter id="filter0_i_489_7834" x="541.299" y="125" width="360" height="200" filterUnits="userSpaceOnUse" color-interpolation-filters="sRGB">
<feFlood flood-opacity="0" result="BackgroundImageFix"/>
<feBlend mode="normal" in="SourceGraphic" in2="BackgroundImageFix" result="shape"/>
<feColorMatrix in="SourceAlpha" type="matrix" values="0 0 0 0 0 0 0 0 0 0 0 0 0 0 0 0 0 0 127 0" result="hardAlpha"/>
<feOffset dx="-24"/>
<feComposite in2="hardAlpha" operator="arithmetic" k2="-1" k3="1"/>
<feColorMatrix type="matrix" values="0 0 0 0 0 0 0 0 0 0 0 0 0 0 0 0 0 0 0.1 0"/>
<feBlend mode="normal" in2="shape" result="effect1_innerShadow_489_7834"/>
</filter>
<filter id="filter1_d_489_7834" x="567.199" y="140.9" width="312.635" height="180.2" filterUnits="userSpaceOnUse" color-interpolation-filters="sRGB">
<feFlood flood-opacity="0" result="BackgroundImageFix"/>
<feColorMatrix in="SourceAlpha" type="matrix" values="0 0 0 0 0 0 0 0 0 0 0 0 0 0 0 0 0 0 127 0" result="hardAlpha"/>
<feOffset dx="7" dy="6"/>
<feGaussianBlur stdDeviation="10.55"/>
<feComposite in2="hardAlpha" operator="out"/>
<feColorMatrix type="matrix" values="0 0 0 0 0 0 0 0 0 0 0 0 0 0 0 0 0 0 0.25 0"/>
<feBlend mode="normal" in2="BackgroundImageFix" result="effect1_dropShadow_489_7834"/>
<feBlend mode="normal" in="SourceGraphic" in2="effect1_dropShadow_489_7834" result="shape"/>
</filter>
</defs>
</svg>
